<svg width="39" height="50" viewBox="0 0 39 50" fill="none" xmlns="http://www.w3.org/2000/svg">
<path d="M19.5 0C14.3301 0.0061437 9.37379 2.07763 5.71816 5.76005C2.06252 9.44246 0.00611045 14.4351 1.14441e-05 19.6429C-0.00618049 23.8986 1.37384 28.0389 3.92837 31.4286C3.92837 31.4286 4.46019 32.1339 4.54705 32.2357L19.5 50L34.46 32.2268C34.538 32.1321 35.0716 31.4286 35.0716 31.4286L35.0734 31.4232C37.6267 28.035 39.006 23.8967 39 19.6429C38.9939 14.4351 36.9375 9.44246 33.2818 5.76005C29.6262 2.07763 24.6698 0.0061437 19.5 0ZM19.5 26.7857C18.0975 26.7857 16.7266 26.3668 15.5605 25.5819C14.3944 24.7971 13.4855 23.6815 12.9489 22.3763C12.4122 21.0711 12.2717 19.6349 12.5453 18.2494C12.8189 16.8638 13.4943 15.591 14.486 14.5921C15.4776 13.5931 16.7411 12.9129 18.1166 12.6372C19.4921 12.3616 20.9179 12.5031 22.2136 13.0437C23.5093 13.5843 24.6167 14.4999 25.3959 15.6745C26.175 16.8491 26.5909 18.2301 26.5909 19.6429C26.5885 21.5365 25.8407 23.352 24.5114 24.691C23.1821 26.03 21.3799 26.7833 19.5 26.7857Z" fill="#F95C19"/>
</svg>
